HIERARCHY
ROOT Hips
{
 OFFSET 0.000000 0.000000 0.000000
 CHANNELS 6 Xposition Yposition Zposition Yrotation Xrotation Zrotation
 JOINT Chest
 {
  OFFSET 0.000000 9.588913 -0.003946
  CHANNELS 3 Yrotation Xrotation Zrotation
  JOINT Chest2
  {
   OFFSET 0.000000 9.541882 0.008053
   CHANNELS 3 Yrotation Xrotation Zrotation
   JOINT Chest3
   {
    OFFSET 0.000000 9.501360 0.000000
    CHANNELS 3 Yrotation Xrotation Zrotation
    JOINT Chest4
    {
     OFFSET 0.000000 9.491660 0.000000
     CHANNELS 3 Yrotation Xrotation Zrotation
     JOINT Neck
     {
      OFFSET 0.000000 14.331917 0.000000
      CHANNELS 3 Yrotation Xrotation Zrotation
      JOINT Head
      {
       OFFSET 0.000000 8.884799 0.017034
       CHANNELS 3 Yrotation Xrotation Zrotation
       End Site
       {
        OFFSET 0.000000 16.896195 0.008993
       }
      }
     }
     JOINT RightCollar
     {
      OFFSET -2.923010 9.499495 0.000000
      CHANNELS 3 Yrotation Xrotation Zrotation
      JOINT RightShoulder
      {
       OFFSET -13.795216 0.000000 0.000000
       CHANNELS 3 Yrotation Xrotation Zrotation
       JOINT RightElbow
       {
        OFFSET -30.272209 0.000000 0.000000
        CHANNELS 3 Yrotation Xrotation Zrotation
        JOINT RightWrist
        {
         OFFSET -24.478199 0.000000 0.000000
         CHANNELS 3 Yrotation Xrotation Zrotation
         End Site
         {
          OFFSET -18.090752 0.000000 0.000000
         }
        }
       }
      }
     }
     JOINT LeftCollar
     {
      OFFSET 2.923010 9.499495 0.000000
      CHANNELS 3 Yrotation Xrotation Zrotation
      JOINT LeftShoulder
      {
       OFFSET 13.795216 0.000000 0.000000
       CHANNELS 3 Yrotation Xrotation Zrotation
       JOINT LeftElbow
       {
        OFFSET 30.272209 0.000000 0.000000
        CHANNELS 3 Yrotation Xrotation Zrotation
        JOINT LeftWrist
        {
         OFFSET 24.478199 0.000000 0.000000
         CHANNELS 3 Yrotation Xrotation Zrotation
         End Site
         {
          OFFSET 18.090752 0.000000 0.000000
         }
        }
       }
      }
     }
    }
   }
  }
 }
 JOINT RightHip
 {
  OFFSET -7.826875 0.019532 0.001973
  CHANNELS 3 Yrotation Xrotation Zrotation
  JOINT RightKnee
  {
   OFFSET 0.000000 -40.546152 -0.001885
   CHANNELS 3 Yrotation Xrotation Zrotation
   JOINT RightAnkle
   {
    OFFSET 0.000000 -39.417092 -0.003189
    CHANNELS 3 Yrotation Xrotation Zrotation
    JOINT RightToe
    {
     OFFSET 0.000000 -7.579396 17.243563
     CHANNELS 3 Yrotation Xrotation Zrotation
     End Site
     {
      OFFSET 0.000000 -1.500329 6.694466
     }
    }
   }
  }
 }
 JOINT LeftHip
 {
  OFFSET 7.826875 0.019532 0.001973
  CHANNELS 3 Yrotation Xrotation Zrotation
  JOINT LeftKnee
  {
   OFFSET 0.000000 -40.546152 -0.001885
   CHANNELS 3 Yrotation Xrotation Zrotation
   JOINT LeftAnkle
   {
    OFFSET 0.000000 -39.417092 -0.003189
    CHANNELS 3 Yrotation Xrotation Zrotation
    JOINT LeftToe
    {
     OFFSET 0.000000 -7.579396 17.243563
     CHANNELS 3 Yrotation Xrotation Zrotation
     End Site
     {
      OFFSET 0.000000 -1.500329 6.694466
     }
    }
   }
  }
 }
}
MOTION
Frames: 11
Frame Time: 0.008333
0.000000 87.345680 0.000000 0.000000 -5.767889 0.000000 0.000000 11.653876 0.000000 0.000000 -5.885988 0.000000 0.000000 -0.000000 0.000000 0.000000 -0.000000 0.000000 0.000000 12.528808 0.000000 0.000000 0.711711 0.000000 0.000000 -0.000000 0.000000 0.000000 -0.000000 0.000000 2.309063 -0.000000 0.000000 -2.309063 -0.000000 -0.000000 0.000000 -0.000000 0.000000 0.000000 0.000000 0.000000 -2.309063 0.000000 0.000000 2.309063 -0.000000 0.000000 0.000000 8.520374 0.000000 0.000000 1.905768 0.000000 -0.000000 -4.658254 0.000000 0.000000 -0.000000 0.000000 0.000000 8.520374 0.000000 0.000000 1.905768 0.000000 -0.000000 -4.658254 0.000000 0.000000 -0.000000 0.000000
-15.860127 53.808257 -26.032906 57.418008 -18.563684 0.811750 -5.734824 9.507792 -1.394503 -3.208928 5.462215 -0.445695 -4.022411 6.823178 -0.605825 -3.208928 5.462215 -0.445695 -4.972518 13.394035 -0.545240 -5.175921 -11.575825 0.565668 11.049898 -10.981313 -4.880474 24.465382 -40.899981 69.423737 13.131096 18.606151 0.079418 -2.838737 -4.819212 -11.770536 -6.179897 -11.752033 0.072366 -21.919483 -39.807670 -74.194710 -31.488200 5.462184 -26.782267 2.591669 -7.304441 16.606994 -16.313679 -65.428632 -5.493952 129.995865 79.039980 121.338346 4.438245 -12.443966 1.524764 0.118950 -0.410515 0.053347 21.843902 -51.724708 -47.375479 96.858938 74.728485 117.536880 -3.622755 -13.063351 -4.613267 0.135497 0.482106 0.062241
-15.860609 53.808114 -26.033344 57.419321 -18.569260 0.810878 -5.739156 9.503244 -1.394736 -3.211149 5.460244 -0.446174 -4.025191 6.820708 -0.606439 -3.211149 5.460244 -0.446174 -4.971083 13.390711 -0.548585 -5.173581 -11.579360 0.561774 11.064257 -10.978825 -4.881101 24.502942 -40.919393 69.418213 13.058679 18.591133 0.057190 -2.885471 -4.816172 -11.745188 -6.168517 -11.747499 0.066774 -21.895654 -39.819988 -74.211878 -31.421351 5.437883 -26.782728 2.551111 -7.308631 16.590370 -16.309776 -65.420738 -5.501850 129.973927 79.040846 121.318210 4.442838 -12.446739 1.523285 0.118867 -0.405779 0.053137 21.834835 -51.722593 -47.366738 96.862950 74.732643 117.539668 -3.629357 -13.064096 -4.614517 0.136191 0.483239 0.062390
-15.860422 53.808355 -26.034227 57.420898 -18.578643 0.813426 -5.742678 9.500504 -1.397085 -3.213270 5.458381 -0.446227 -4.027842 6.818375 -0.606520 -3.213270 5.458381 -0.446227 -4.970028 13.389053 -0.553672 -5.171231 -11.581150 0.556107 11.076805 -10.976534 -4.883782 24.536950 -40.936508 69.412030 12.987897 18.582105 0.037240 -2.921728 -4.813831 -11.726091 -6.159346 -11.742068 0.058684 -21.871761 -39.833951 -74.231522 -31.347756 5.410061 -26.781606 2.500574 -7.310329 16.578017 -16.294087 -65.410203 -5.524576 129.964092 79.045520 121.311116 4.454595 -12.449875 1.520906 0.117247 -0.401031 0.053112 21.824614 -51.713761 -47.359096 96.850814 74.733495 117.524853 -3.635564 -13.067064 -4.614723 0.134805 0.487232 0.061887
-15.859814 53.808954 -26.035710 57.425472 -18.589690 0.818516 -5.748168 9.498349 -1.403116 -3.214914 5.456936 -0.445734 -4.029887 6.816570 -0.605914 -3.214914 5.456936 -0.445734 -4.969317 13.388611 -0.559176 -5.169149 -11.581660 0.550071 11.084478 -10.975138 -4.884691 24.573088 -40.951810 69.402356 12.918688 18.573554 0.018311 -2.948683 -4.811103 -11.713802 -6.155002 -11.736872 0.052472 -21.849492 -39.848945 -74.253688 -31.271636 5.380523 -26.777388 2.445603 -7.310717 16.572349 -16.275177 -65.400638 -5.554951 129.962278 79.047248 121.311360 4.463066 -12.451879 1.518931 0.115486 -0.398849 0.052653 21.815208 -51.700524 -47.355448 96.827173 74.734097 117.497107 -3.638815 -13.069190 -4.613727 0.132904 0.492177 0.061622
-15.859510 53.809803 -26.037386 57.433005 -18.599536 0.821978 -5.754180 9.495253 -1.409297 -3.215951 5.456008 -0.445034 -4.031172 6.815415 -0.605046 -3.215951 5.456008 -0.445034 -4.968751 13.388776 -0.563180 -5.167573 -11.581524 0.545667 11.086324 -10.976146 -4.882435 24.610668 -40.967917 69.391157 12.847297 18.561539 0.000736 -2.965709 -4.805711 -11.708021 -6.157183 -11.731636 0.051787 -21.829814 -39.865768 -74.276727 -31.197620 5.355427 -26.766480 2.391808 -7.310957 16.566097 -16.267073 -65.393363 -5.578442 129.960777 79.046701 121.310074 4.470896 -12.451285 1.516901 0.113920 -0.399450 0.051630 21.803939 -51.688644 -47.352066 96.801934 74.736132 117.468829 -3.640576 -13.069580 -4.615056 0.134398 0.496401 0.062826
-15.859644 53.810915 -26.038917 57.440488 -18.608170 0.822997 -5.758390 9.491537 -1.411790 -3.216854 5.455173 -0.444935 -4.032297 6.814371 -0.604927 -3.216854 5.455173 -0.444935 -4.967631 13.389647 -0.565768 -5.165709 -11.580659 0.542641 11.087062 -10.978694 -4.878842 24.641405 -40.985727 69.383524 12.772006 18.545571 -0.014093 -2.974694 -4.800055 -11.704970 -6.160052 -11.726510 0.053518 -21.815141 -39.883800 -74.296737 -31.131651 5.339389 -26.750352 2.343948 -7.309602 16.554349 -16.267863 -65.385801 -5.591619 129.954454 79.047024 121.302642 4.477164 -12.450046 1.514610 0.113866 -0.400225 0.051329 21.790166 -51.679643 -47.346117 96.781912 74.739236 117.447125 -3.641765 -13.069087 -4.618343 0.138457 0.499201 0.064268
-15.859678 53.812409 -26.040259 57.446045 -18.618160 0.824037 -5.761264 9.488065 -1.412108 -3.218285 5.453985 -0.445590 -4.034094 6.812878 -0.605757 -3.218285 5.453985 -0.445590 -4.964376 13.392172 -0.568490 -5.161421 -11.578124 0.538968 11.090323 -10.978757 -4.874720 24.665747 -41.006464 69.379503 12.692730 18.522182 -0.027763 -2.983779 -4.795865 -11.695525 -6.159961 -11.720729 0.053770 -21.805799 -39.900253 -74.311361 -31.076374 5.331298 -26.731067 2.303914 -7.306787 16.536081 -16.268209 -65.375252 -5.601234 129.945935 79.048777 121.291761 4.479058 -12.450033 1.513814 0.114901 -0.399947 0.051354 21.776662 -51.669925 -47.338241 96.769058 74.743044 117.430734 -3.640162 -13.068553 -4.619155 0.140448 0.500632 0.064442
-15.859411 53.814278 -26.041409 57.448763 -18.630155 0.826263 -5.763268 9.485105 -1.412757 -3.219916 5.452477 -0.446638 -4.036148 6.810982 -0.607079 -3.219916 5.452477 -0.446638 -4.959318 13.395889 -0.571354 -5.155085 -11.574396 0.534718 11.094992 -10.975376 -4.869183 24.690018 -41.032557 69.376625 12.608584 18.489684 -0.038640 -2.998007 -4.791678 -11.675843 -6.159330 -11.715481 0.052346 -21.799042 -39.912436 -74.320759 -31.027411 5.328264 -26.709602 2.273628 -7.305071 16.510046 -16.266117 -65.362016 -5.611114 129.932534 79.050584 121.275448 4.479228 -12.451130 1.513736 0.114274 -0.398625 0.050782 21.765519 -51.658282 -47.329448 96.762356 74.746958 117.418671 -3.636902 -13.067744 -4.618079 0.139672 0.500360 0.064219
-15.859334 53.816235 -26.042737 57.449391 -18.639856 0.829803 -5.765690 9.479802 -1.414326 -3.221242 5.450269 -0.448017 -4.037820 6.808206 -0.608805 -3.221242 5.450269 -0.448017 -4.953149 13.400626 -0.573570 -5.147656 -11.569629 0.530895 11.099991 -10.969756 -4.862332 24.716402 -41.063622 69.376588 12.517548 18.445073 -0.045587 -3.014794 -4.784774 -11.647609 -6.157473 -11.710975 0.050296 -21.792099 -39.920664 -74.328018 -30.978023 5.328354 -26.686596 2.250429 -7.308041 16.477480 -16.262420 -65.351471 -5.622139 129.909139 79.050547 121.250395 4.479832 -12.452115 1.511507 0.113987 -0.396922 0.050714 21.756284 -51.648994 -47.321372 96.753228 74.751742 117.404525 -3.635233 -13.066340 -4.619990 0.141198 0.499832 0.065704
-15.859465 53.818162 -26.044449 57.451512 -18.646140 0.834469 -5.770998 9.471544 -1.417608 -3.222800 5.446975 -0.448984 -4.039775 6.804079 -0.610008 -3.222800 5.446976 -0.448984 -4.945295 13.407306 -0.576607 -5.138142 -11.562883 0.525798 11.107832 -10.962627 -4.858504 24.743028 -41.094814 69.380066 12.420438 18.376569 -0.050726 -3.025516 -4.770969 -11.610651 -6.151452 -11.706008 0.044855 -21.783032 -39.925931 -74.334414 -30.924930 5.329244 -26.665399 2.226377 -7.317425 16.439370 -16.256156 -65.345959 -5.635384 129.891980 79.048415 121.231565 4.477982 -12.452264 1.509559 0.115800 -0.397406 0.051517 21.744992 -51.644169 -47.314770 96.738700 74.757318 117.384006 -3.635570 -13.063920 -4.625103 0.145119 0.499869 0.068522
